<?xml version="1.0" encoding="UTF-8"?> <!-- Generator: Adobe Illustrator 22.1.0, SVG Export Plug-In . SVG Version: 6.00 Build 0) --> <svg xmlns="http://www.w3.org/2000/svg" xmlns:xlink="http://www.w3.org/1999/xlink" id="Layer_1" x="0px" y="0px" viewBox="0 0 75.3 45" style="enable-background:new 0 0 75.3 45;" xml:space="preserve"> <style type="text/css"> .st0{fill:#FFFFFF;} .st1{fill:#75C043;} </style> <g> <path class="st0" d="M49.2,24.6l-4.1-1.5c-0.9-0.3-1.3-0.1-1.7,0.8c-0.4,1.2-1.2,1.7-2.6,1.7c-2.1,0-2.6-0.8-2.6-2.7l0-4.9 c0-1.9,0.5-2.7,2.6-2.7c1.4,0,2,0.5,2.5,1.7c0.4,1,0.7,1.1,1.7,0.9l4.1-1.4c0.9-0.3,1.2-0.8,0.9-1.7c-1.3-3.6-4.3-5.5-9.2-5.5 c-3.3,0-5.8,0.9-7.4,2.6l0-0.9c0-1-0.3-1.4-1.4-1.4l-15.8,0c-1,0-1.4,0.3-1.4,1.4l0,3.4c0,1,0.3,1.4,1.4,1.4l4.3,0l0,14.3 c0,1,0.3,1.4,1.4,1.4l4.4,0c1,0,1.4-0.3,1.4-1.4l0-14.3l3.6,0c-0.1,0.7-0.2,1.5-0.2,2.2l0,4.9c0,5.4,3.5,8.8,9.7,8.8 c4.9,0,7.9-2,9.2-5.5C50.4,25.3,50.2,24.9,49.2,24.6z"></path> <g> <g> <path class="st1" d="M58.4,14H44.8c-1.1,0-1.9-0.9-1.9-1.9V6.6c0-1.1,0.9-1.9,1.9-1.9h13.6c1.1,0,1.9,0.9,1.9,1.9V12 C60.4,13.1,59.5,14,58.4,14z"></path> </g> <g> <path class="st0" d="M47.3,10.4c0,0.4-0.1,0.7-0.3,0.8c-0.2,0.2-0.4,0.3-0.8,0.3s-0.6-0.1-0.8-0.3c-0.2-0.2-0.2-0.4-0.2-0.8V8.3 c0-0.2,0-0.3,0.1-0.5c0-0.1,0.1-0.3,0.2-0.4c0.1-0.1,0.2-0.2,0.3-0.2c0.1-0.1,0.3-0.1,0.5-0.1c0.2,0,0.4,0,0.5,0.1 c0.1,0.1,0.2,0.1,0.3,0.2c0.1,0.1,0.1,0.2,0.2,0.4c0,0.1,0.1,0.3,0.1,0.5V10.4z M46.6,8.3c0-0.1,0-0.2-0.1-0.3 c-0.1-0.1-0.1-0.1-0.3-0.1c-0.1,0-0.1,0-0.2,0.1c0,0-0.1,0.1-0.1,0.1c0,0.1,0,0.1-0.1,0.2s0,0.1,0,0.2v2.2c0,0.1,0,0.2,0.1,0.3 c0.1,0.1,0.2,0.1,0.3,0.1c0.1,0,0.2,0,0.3-0.1c0.1-0.1,0.1-0.2,0.1-0.3V8.3z"></path> <path class="st0" d="M48.5,9v2.5h-0.7V7.2h0.6L49,8.5c0,0.1,0.1,0.2,0.1,0.3c0,0.1,0.1,0.2,0.1,0.3l0.2,0.6c0,0,0,0,0,0 c0,0,0,0,0,0V7.2h0.7v4.3h-0.6L49,10.2c-0.1-0.2-0.2-0.4-0.2-0.6C48.7,9.4,48.6,9.2,48.5,9L48.5,9z"></path> <path class="st0" d="M53.5,11.5l-0.2-0.9h-0.8c0,0.1-0.1,0.3-0.1,0.4c0,0.2-0.1,0.3-0.1,0.4h-0.7c0.1-0.7,0.3-1.4,0.4-2.1 c0.1-0.7,0.3-1.4,0.4-2.1h0.7l0.9,4.3H53.5z M53,8.2c0,0.3-0.1,0.6-0.1,0.9c0,0.3-0.1,0.6-0.1,0.9h0.6L53,8.2L53,8.2z"></path> <path class="st0" d="M54.6,11.5V7.2h0.7v4.3H54.6z"></path> <path class="st0" d="M56.9,7.2c0.3,0,0.6,0.1,0.8,0.3C57.9,7.7,58,8,58,8.4c0,0.3,0,0.5-0.1,0.7c-0.1,0.2-0.2,0.3-0.4,0.4 l0.6,1.9h-0.7l-0.6-1.8h-0.3v1.8h-0.7V7.2H56.9z M56.6,7.8v1.3h0.3c0.2,0,0.3-0.1,0.4-0.2c0.1-0.1,0.1-0.3,0.1-0.5 c0-0.2,0-0.4-0.1-0.5c-0.1-0.1-0.2-0.2-0.4-0.2H56.6z"></path> </g> </g> </g> </svg> 