<?xml version="1.0" encoding="UTF-8"?> <!-- Generator: Adobe Illustrator 22.1.0, SVG Export Plug-In . SVG Version: 6.00 Build 0) --> <svg xmlns="http://www.w3.org/2000/svg" xmlns:xlink="http://www.w3.org/1999/xlink" id="Layer_1" x="0px" y="0px" viewBox="0 0 141.7 141.7" style="enable-background:new 0 0 141.7 141.7;" xml:space="preserve"> <style type="text/css"> .st0{fill:#FFFFFF;} .st1{fill:#F8961D;} .st2{fill:#76C043;} </style> <path class="st0" d="M113.8,141.7H28c-15.4,0-28-12.5-28-28V28C0,12.5,12.5,0,28,0l85.8,0c15.4,0,28,12.5,28,28v85.8 C141.7,129.2,129.2,141.7,113.8,141.7z"></path> <g> <g> <path class="st1" d="M82.3,48.4c11.2,0,18.1,4.6,21.1,12.7c0.8,2.1,0.2,3.1-2,3.9l-9.5,3.3c-2.2,0.6-3.1,0.3-3.9-2 c-1.1-2.9-2.5-4-5.8-4c-4.9,0-6.1,1.9-6.1,6.1l0,11.3c0,4.3,1.2,6.1,6.1,6.1c3.2,0,4.9-1.3,5.9-4c0.8-2.2,1.7-2.7,3.9-1.9l9.4,3.4 c2.2,0.8,2.7,1.8,1.9,4c-3,8.1-10,12.6-21.1,12.6C68,100,60,92.2,60,79.8l0-11.2C60,56.1,68.1,48.4,82.3,48.4z"></path> <g> <path class="st1" d="M65.2,52.4l0,7.9c0,2.3-0.8,3.1-3.1,3.1l-9.9,0l0,32.9c0,2.3-0.8,3.1-3.1,3.1l-10.2,0 c-2.3,0-3.1-0.8-3.1-3.1l0-32.9l-9.9,0c-2.3,0-3.1-0.8-3.1-3.1l0-7.9c0-2.3,0.8-3.1,3.1-3.1l36.3,0 C64.4,49.3,65.2,50.1,65.2,52.4z"></path> </g> </g> <g> <g> <path class="st2" d="M122.5,59.1H91.3c-2.5,0-4.5-2-4.5-4.5V42.2c0-2.5,2-4.5,4.5-4.5h31.3c2.5,0,4.5,2,4.5,4.5v12.5 C127,57.1,125,59.1,122.5,59.1z"></path> </g> <g> <path class="st0" d="M96.9,51c0,0.9-0.2,1.5-0.6,1.9s-1,0.7-1.8,0.7s-1.4-0.2-1.8-0.6c-0.4-0.4-0.6-1-0.6-1.8v-5 c0-0.4,0-0.7,0.1-1.1c0.1-0.3,0.2-0.6,0.4-0.8c0.2-0.2,0.4-0.4,0.7-0.5c0.3-0.1,0.7-0.2,1.1-0.2c0.5,0,0.8,0.1,1.1,0.2 c0.3,0.1,0.5,0.3,0.7,0.5c0.2,0.2,0.3,0.5,0.4,0.8c0.1,0.3,0.1,0.7,0.1,1.1V51z M95.3,46c0-0.3-0.1-0.5-0.2-0.7 c-0.1-0.2-0.3-0.3-0.7-0.3c-0.2,0-0.3,0-0.4,0.1c-0.1,0.1-0.2,0.2-0.3,0.3c-0.1,0.1-0.1,0.3-0.1,0.4c0,0.1,0,0.3,0,0.4v5 c0,0.3,0.1,0.5,0.2,0.7c0.1,0.2,0.3,0.3,0.7,0.3c0.3,0,0.5-0.1,0.7-0.3c0.1-0.2,0.2-0.5,0.2-0.8V46z"></path> <path class="st0" d="M99.8,47.8v5.7h-1.5v-9.8h1.4l1.2,2.9c0.1,0.2,0.2,0.5,0.3,0.7c0.1,0.2,0.2,0.5,0.3,0.7l0.5,1.4c0,0,0,0,0,0 c0,0,0,0,0,0v-5.7h1.5v9.8h-1.3l-1.2-2.9c-0.2-0.5-0.4-1-0.6-1.4C100.2,48.7,100,48.2,99.8,47.8L99.8,47.8z"></path> <path class="st0" d="M111.3,53.5l-0.4-2.1h-1.8c-0.1,0.3-0.1,0.7-0.2,1c-0.1,0.3-0.1,0.7-0.2,1h-1.6c0.3-1.7,0.7-3.3,1-4.9 c0.3-1.6,0.7-3.3,1-4.9h1.7l2,9.8H111.3z M110,45.9c-0.1,0.7-0.2,1.4-0.3,2c-0.1,0.7-0.2,1.4-0.3,2.1h1.3L110,45.9L110,45.9z"></path> <path class="st0" d="M113.8,53.5v-9.8h1.5v9.8H113.8z"></path> <path class="st0" d="M119.1,43.6c0.8,0,1.4,0.2,1.9,0.7c0.5,0.4,0.7,1.2,0.7,2.2c0,0.6-0.1,1.1-0.3,1.6c-0.2,0.4-0.5,0.8-0.9,1 l1.5,4.4h-1.6l-1.3-4.1h-0.7v4.1h-1.5v-9.8H119.1z M118.3,45.1V48h0.6c0.4,0,0.7-0.1,0.9-0.3c0.2-0.2,0.3-0.6,0.3-1.1 c0-0.5-0.1-0.8-0.3-1.1c-0.2-0.2-0.5-0.4-0.9-0.4H118.3z"></path> </g> </g> </g> </svg> 